# xmcd
#
# Track frame offsets:
# 150
# 13620
# 37082
# 59637
# 77272
# 91417
# 111717
# 132612
# 148762
# 165632
#
# Disc length: 2842 seconds
#
#
# Revision: 3
# Processed by: cddbd v1.4PL0 Copyright (c) Steve Scherf et al.
# Submitted via: FreeRIP 2.00 
#
DISCID=8f0b180a
DTITLE=Francisco Céspedes - Dónde está la vida
DYEAR=2000
DGENRE=Latin
TTITLE0=Dónde está la vida
TTITLE1=Así es mi música
TTITLE2=Qué lejos
TTITLE3=Todo igual a nada
TTITLE4=Llorando por dentro
TTITLE5=Otra lágrima
TTITLE6=Que tú te vas
TTITLE7=Cuándo
TTITLE8=Quédate más
TTITLE9=Olvidarte
EXTD=
EXTT0=
EXTT1=
EXTT2=
EXTT3=
EXTT4=
EXTT5=
EXTT6=
EXTT7=
EXTT8=
EXTT9=
PLAYORDER=
